# xmcd
#
# Track frame offsets:
#	150
#	17668
#	35473
#	55219
#	69081
#	85106
#	100711
#	120215
#	137870
#	154849
#	174442
#	190058
#	203224
#	219922
#	234007
#
# Disc length: 3279 seconds
#
# Revision: 0
# Processed by: cddbd v1.5.2PL0 Copyright (c) Steve Scherf et al.
# Submitted via: EasyCDDAExtractor 2010.4.0.0
#
DISCID=b30ccd0f
DTITLE=Various Artist - Gone Country - 70's Rock
DYEAR=1900
DGENRE=county
TTITLE0=Marty Stuart - Rock And Roll
TTITLE1=John Berry - Takin' Care Of Business
TTITLE2=Pam Tillis - Say You Love Me
TTITLE3=Vince Gill - Heart Of Gold
TTITLE4=Joe Diffie - Jet Airliner
TTITLE5=Raul Malo - Long Cool Woman
TTITLE6=John Anderson - Your Song
TTITLE7=Rebecca Lynn Howard - It's Only Rock'n'roll
TTITLE8=Collin Raye - Layla
TTITLE9=Denna Carter - Dream On
TTITLE10=Tanya Tucker And Ty Herndon - Don't Go Breaking My Heart
TTITLE11=Sammy Kershaw - Just Got Paid
TTITLE12=Lorrie Morgan - Can't Get Enough
TTITLE13=John Cowan - I Want You To Want Me
TTITLE14=Bo Dice - Closer To The Heart
EXTD=
EXTT0=
EXTT1=
EXTT2=
EXTT3=
EXTT4=
EXTT5=
EXTT6=
EXTT7=
EXTT8=
EXTT9=
EXTT10=
EXTT11=
EXTT12=
EXTT13=
EXTT14=
PLAYORDER=
